<svg width="454" height="257" viewBox="0 0 454 257" fill="none" xmlns="http://www.w3.org/2000/svg">
<g filter="url(#filter0_d)">
<path d="M103.282 0.218246C69.0116 2.37187 38.154 19.1661 20.0106 45.5688C14.6959 53.2929 10.5266 61.866 7.89214 70.5013C0.905098 93.425 3.3792 117.674 14.8792 138.734C19.2547 146.748 23.4011 152.401 30.3652 159.856C31.1441 160.705 47.6152 180.067 66.9269 202.867C87.9567 227.696 102.549 244.738 103.305 245.36C107.566 248.88 113.431 248.88 117.692 245.36C118.448 244.738 133.04 227.696 154.07 202.867C173.382 180.067 189.853 160.705 190.632 159.856C197.596 152.401 201.742 146.748 206.118 138.734C219.084 114.982 220.527 86.9227 210.104 62.218C202.017 43.1045 187.952 27.2422 168.915 15.7907C150.015 4.42197 126.214 -1.2106 103.282 0.218246ZM116.088 46.8941C121.22 47.4946 125.206 48.5715 129.856 50.6216C142.524 56.1713 151.184 66.2768 154.185 79.0744C154.757 81.4765 154.803 82.077 154.826 86.6535C154.826 92.1825 154.597 93.7978 153.223 98.1465C149.534 109.764 139.798 119.517 127.336 124.094C122.732 125.792 118.975 126.579 113.774 126.972C107.039 127.49 100.19 126.496 93.6609 124.094C81.1988 119.517 71.4627 109.764 67.7745 98.1465C66.4 93.7978 66.1709 92.1825 66.1709 86.6535C66.1938 82.077 66.2396 81.4765 66.8124 79.0744C69.3781 68.1612 76.1131 59.0911 86.1012 53.1479C90.1559 50.7458 96.1121 48.4472 100.694 47.5361C105.482 46.5835 111.392 46.335 116.088 46.8941Z" fill="#2F2E41"/>
<path d="M105.247 12.1916C78.0645 14.0813 53.5896 28.8171 39.199 51.9838C34.9836 58.7612 31.6766 66.2835 29.5871 73.8604C24.0453 93.9745 26.0076 115.252 35.1289 133.73C38.5994 140.762 41.8881 145.722 47.4118 152.264C48.0296 153.009 61.0938 169.998 76.411 190.003C93.091 211.788 104.665 226.742 105.265 227.287C108.644 230.376 113.296 230.376 116.676 227.287C117.275 226.742 128.849 211.788 145.529 190.003C160.847 169.998 173.911 153.009 174.529 152.264C180.052 145.722 183.341 140.762 186.812 133.73C197.096 112.889 198.24 88.2691 189.973 66.5924C183.559 49.8215 172.403 35.9034 157.304 25.8554C142.313 15.8801 123.435 10.9379 105.247 12.1916ZM115.404 53.1467C119.474 53.6736 122.635 54.6184 126.324 56.4172C136.372 61.2868 143.24 70.1537 145.62 81.3827C146.075 83.4904 146.111 84.0174 146.129 88.0329C146.129 92.8843 145.947 94.3016 144.857 98.1172C141.932 108.311 134.21 116.869 124.325 120.884C120.673 122.374 117.693 123.065 113.569 123.41C108.227 123.864 102.794 122.992 97.6153 120.884C87.7309 116.869 80.0087 108.311 77.0833 98.1172C75.9931 94.3016 75.8114 92.8843 75.8114 88.0329C75.8296 84.0174 75.8659 83.4904 76.3202 81.3827C78.3552 71.8072 83.6972 63.8488 91.6192 58.634C94.8353 56.5263 99.5595 54.5094 103.193 53.7099C106.991 52.8741 111.679 52.6561 115.404 53.1467Z" fill="#BB86FC"/>
<path d="M178.5 95.9446C178.511 109.398 174.53 122.553 167.063 133.744C159.595 144.935 148.975 153.66 136.548 158.813C124.12 163.967 110.443 165.318 97.2473 162.696C84.0515 160.074 71.93 153.597 62.4167 144.083C52.9034 134.57 46.4259 122.449 43.8039 109.253C41.1819 96.0568 42.5332 82.3797 47.6868 69.9521C52.8405 57.5245 61.5648 46.905 72.7558 39.4373C83.9468 31.9696 97.1015 27.9894 110.555 28.0004C119.486 27.9702 128.335 29.707 136.592 33.1108C144.849 36.5146 152.351 41.5182 158.667 47.8334C164.982 54.1486 169.985 61.6508 173.389 69.9078C176.793 78.1648 178.53 87.0136 178.5 95.9446Z" fill="#BB86FC"/>
<path d="M5 30H213L211.798 32.788C204.157 50.5162 186.703 62 167.398 62H50.6019C31.2971 62 13.8426 50.5162 6.20165 32.788L5 30Z" fill="#BB86FC"/>
<circle cx="156" cy="95.5" r="45.5" fill="#E5E5E5"/>
<circle cx="65.5" cy="95.5" r="46" fill="#E5E5E5"/>
<ellipse cx="112" cy="124.5" rx="70" ry="34.5" fill="#E5E5E5"/>
<circle cx="72.5" cy="96" r="19" fill="#121212"/>
<circle cx="151.5" cy="96" r="19" fill="#121212"/>
<path d="M110.5 121L118 131.536L110.5 142.071L103 131.536L110.5 121Z" fill="#03DAC6"/>
<ellipse rx="5.35526" ry="5.5" transform="matrix(-1 0 0 1 67.3557 89.5)" fill="white"/>
<circle r="2.5" transform="matrix(-1 0 0 1 81.2109 98.5)" fill="white"/>
<circle r="2.5" transform="matrix(-1 0 0 1 161.5 98.5)" fill="white"/>
<ellipse rx="5.35526" ry="5.5" transform="matrix(-1 0 0 1 146.356 89.5)" fill="white"/>
</g>
<path d="M270.936 98.064H254.168L251.48 106H240.024L256.28 61.072H268.952L285.208 106H273.624L270.936 98.064ZM268.12 89.616L262.552 73.168L257.048 89.616H268.12ZM314.476 69.904C318.657 69.904 321.985 71.2693 324.46 74C326.977 76.688 328.236 80.4 328.236 85.136V106H317.356V86.608C317.356 84.2187 316.737 82.3627 315.5 81.04C314.262 79.7173 312.598 79.056 310.508 79.056C308.417 79.056 306.753 79.7173 305.516 81.04C304.278 82.3627 303.66 84.2187 303.66 86.608V106H292.716V70.288H303.66V75.024C304.769 73.4453 306.262 72.208 308.14 71.312C310.017 70.3733 312.129 69.904 314.476 69.904ZM354.657 106.512C351.158 106.512 348.001 105.765 345.185 104.272C342.411 102.779 340.214 100.645 338.593 97.872C337.014 95.0987 336.225 91.856 336.225 88.144C336.225 84.4747 337.035 81.2533 338.657 78.48C340.278 75.664 342.497 73.5093 345.313 72.016C348.129 70.5227 351.286 69.776 354.785 69.776C358.283 69.776 361.441 70.5227 364.257 72.016C367.073 73.5093 369.291 75.664 370.913 78.48C372.534 81.2533 373.345 84.4747 373.345 88.144C373.345 91.8133 372.513 95.056 370.849 97.872C369.227 100.645 366.987 102.779 364.129 104.272C361.313 105.765 358.155 106.512 354.657 106.512ZM354.657 97.04C356.747 97.04 358.518 96.272 359.969 94.736C361.462 93.2 362.209 91.0027 362.209 88.144C362.209 85.2853 361.483 83.088 360.033 81.552C358.625 80.016 356.875 79.248 354.785 79.248C352.651 79.248 350.881 80.016 349.473 81.552C348.065 83.0453 347.361 85.2427 347.361 88.144C347.361 91.0027 348.043 93.2 349.409 94.736C350.817 96.272 352.566 97.04 354.657 97.04ZM403.47 69.904C407.652 69.904 410.98 71.2693 413.454 74C415.972 76.688 417.23 80.4 417.23 85.136V106H406.35V86.608C406.35 84.2187 405.732 82.3627 404.494 81.04C403.257 79.7173 401.593 79.056 399.502 79.056C397.412 79.056 395.748 79.7173 394.51 81.04C393.273 82.3627 392.654 84.2187 392.654 86.608V106H381.71V70.288H392.654V75.024C393.764 73.4453 395.257 72.208 397.134 71.312C399.012 70.3733 401.124 69.904 403.47 69.904Z" fill="#F9F9F9"/>
<path d="M259.224 176.448C255.939 176.448 252.995 175.915 250.392 174.848C247.789 173.781 245.699 172.203 244.12 170.112C242.584 168.021 241.773 165.504 241.688 162.56H253.336C253.507 164.224 254.083 165.504 255.064 166.4C256.045 167.253 257.325 167.68 258.904 167.68C260.525 167.68 261.805 167.317 262.744 166.592C263.683 165.824 264.152 164.779 264.152 163.456C264.152 162.347 263.768 161.429 263 160.704C262.275 159.979 261.357 159.381 260.248 158.912C259.181 158.443 257.645 157.909 255.64 157.312C252.739 156.416 250.371 155.52 248.536 154.624C246.701 153.728 245.123 152.405 243.8 150.656C242.477 148.907 241.816 146.624 241.816 143.808C241.816 139.627 243.331 136.363 246.36 134.016C249.389 131.627 253.336 130.432 258.2 130.432C263.149 130.432 267.139 131.627 270.168 134.016C273.197 136.363 274.819 139.648 275.032 143.872H263.192C263.107 142.421 262.573 141.291 261.592 140.48C260.611 139.627 259.352 139.2 257.816 139.2C256.493 139.2 255.427 139.563 254.616 140.288C253.805 140.971 253.4 141.973 253.4 143.296C253.4 144.747 254.083 145.877 255.448 146.688C256.813 147.499 258.947 148.373 261.848 149.312C264.749 150.293 267.096 151.232 268.888 152.128C270.723 153.024 272.301 154.325 273.624 156.032C274.947 157.739 275.608 159.936 275.608 162.624C275.608 165.184 274.947 167.509 273.624 169.6C272.344 171.691 270.467 173.355 267.992 174.592C265.517 175.829 262.595 176.448 259.224 176.448ZM295.847 145.344C296.914 143.68 298.386 142.336 300.263 141.312C302.14 140.288 304.338 139.776 306.855 139.776C309.799 139.776 312.466 140.523 314.855 142.016C317.244 143.509 319.122 145.643 320.487 148.416C321.895 151.189 322.599 154.411 322.599 158.08C322.599 161.749 321.895 164.992 320.487 167.808C319.122 170.581 317.244 172.736 314.855 174.272C312.466 175.765 309.799 176.512 306.855 176.512C304.38 176.512 302.183 176 300.263 174.976C298.386 173.952 296.914 172.629 295.847 171.008V193.024H284.903V140.288H295.847V145.344ZM311.463 158.08C311.463 155.349 310.695 153.216 309.159 151.68C307.666 150.101 305.81 149.312 303.591 149.312C301.415 149.312 299.559 150.101 298.023 151.68C296.53 153.259 295.783 155.413 295.783 158.144C295.783 160.875 296.53 163.029 298.023 164.608C299.559 166.187 301.415 166.976 303.591 166.976C305.767 166.976 307.623 166.187 309.159 164.608C310.695 162.987 311.463 160.811 311.463 158.08ZM328.725 158.08C328.725 154.411 329.407 151.189 330.773 148.416C332.181 145.643 334.079 143.509 336.469 142.016C338.858 140.523 341.525 139.776 344.469 139.776C346.986 139.776 349.183 140.288 351.061 141.312C352.981 142.336 354.453 143.68 355.477 145.344V140.288H366.421V176H355.477V170.944C354.41 172.608 352.917 173.952 350.997 174.976C349.119 176 346.922 176.512 344.405 176.512C341.503 176.512 338.858 175.765 336.469 174.272C334.079 172.736 332.181 170.581 330.773 167.808C329.407 164.992 328.725 161.749 328.725 158.08ZM355.477 158.144C355.477 155.413 354.709 153.259 353.173 151.68C351.679 150.101 349.845 149.312 347.669 149.312C345.493 149.312 343.637 150.101 342.101 151.68C340.607 153.216 339.861 155.349 339.861 158.08C339.861 160.811 340.607 162.987 342.101 164.608C343.637 166.187 345.493 166.976 347.669 166.976C349.845 166.976 351.679 166.187 353.173 164.608C354.709 163.029 355.477 160.875 355.477 158.144ZM374.722 158.144C374.722 154.432 375.469 151.189 376.962 148.416C378.498 145.643 380.61 143.509 383.298 142.016C386.029 140.523 389.143 139.776 392.642 139.776C397.122 139.776 400.855 140.949 403.842 143.296C406.871 145.643 408.855 148.949 409.794 153.216H398.146C397.165 150.485 395.266 149.12 392.45 149.12C390.445 149.12 388.845 149.909 387.65 151.488C386.455 153.024 385.858 155.243 385.858 158.144C385.858 161.045 386.455 163.285 387.65 164.864C388.845 166.4 390.445 167.168 392.45 167.168C395.266 167.168 397.165 165.803 398.146 163.072H409.794C408.855 167.253 406.871 170.539 403.842 172.928C400.813 175.317 397.079 176.512 392.642 176.512C389.143 176.512 386.029 175.765 383.298 174.272C380.61 172.779 378.498 170.645 376.962 167.872C375.469 165.099 374.722 161.856 374.722 158.144ZM451.872 157.568C451.872 158.592 451.808 159.659 451.68 160.768H426.912C427.083 162.987 427.787 164.693 429.024 165.888C430.304 167.04 431.861 167.616 433.696 167.616C436.427 167.616 438.325 166.464 439.392 164.16H451.04C450.443 166.507 449.355 168.619 447.776 170.496C446.24 172.373 444.299 173.845 441.952 174.912C439.605 175.979 436.981 176.512 434.08 176.512C430.581 176.512 427.467 175.765 424.736 174.272C422.005 172.779 419.872 170.645 418.336 167.872C416.8 165.099 416.032 161.856 416.032 158.144C416.032 154.432 416.779 151.189 418.272 148.416C419.808 145.643 421.941 143.509 424.672 142.016C427.403 140.523 430.539 139.776 434.08 139.776C437.536 139.776 440.608 140.501 443.296 141.952C445.984 143.403 448.075 145.472 449.568 148.16C451.104 150.848 451.872 153.984 451.872 157.568ZM440.672 154.688C440.672 152.811 440.032 151.317 438.752 150.208C437.472 149.099 435.872 148.544 433.952 148.544C432.117 148.544 430.56 149.077 429.28 150.144C428.043 151.211 427.275 152.725 426.976 154.688H440.672Z" fill="#BB86FC"/>
<defs>
<filter id="filter0_d" x="0" y="0" width="221" height="257" filterUnits="userSpaceOnUse" color-interpolation-filters="sRGB">
<feFlood flood-opacity="0" result="BackgroundImageFix"/>
<feColorMatrix in="SourceAlpha" type="matrix" values="0 0 0 0 0 0 0 0 0 0 0 0 0 0 0 0 0 0 127 0"/>
<feOffset dy="5"/>
<feGaussianBlur stdDeviation="2"/>
<feColorMatrix type="matrix" values="0 0 0 0 0 0 0 0 0 0 0 0 0 0 0 0 0 0 0.25 0"/>
<feBlend mode="normal" in2="BackgroundImageFix" result="effect1_dropShadow"/>
<feBlend mode="normal" in="SourceGraphic" in2="effect1_dropShadow" result="shape"/>
</filter>
</defs>
</svg>
